<svg xmlns="http://www.w3.org/2000/svg" xmlns:xlink="http://www.w3.org/1999/xlink" version="1.1" width="1000" height="1000" viewBox="0 0 1000 1000" xml:space="preserve">
<desc>Created with Fabric.js 3.5.0</desc>
<defs>
</defs>
<rect x="0" y="0" width="100%" height="100%" fill="#ffffff"/>
<g transform="matrix(56.816 0 0 56.816 500.0001 500.0002)" id="888549">
<path style="stroke: none; stroke-width: 1; stroke-dasharray: none; stroke-linecap: butt; stroke-dashoffset: 0; stroke-linejoin: miter; stroke-miterlimit: 4; is-custom-font: none; font-file-url: none; fill: rgb(0,0,0); fill-rule: nonzero; opacity: 1;" vector-effect="non-scaling-stroke" transform=" translate(-7.9994, -8.001)" d="M 11.742 10.344 a 6.5 6.5 0 1 0 -1.397 1.398 h -0.001 q 0.044 0.06 0.098 0.115 l 3.85 3.85 a 1 1 0 0 0 1.415 -1.414 l -3.85 -3.85 a 1 1 0 0 0 -0.115 -0.1 z M 12 6.5 a 5.5 5.5 0 1 1 -11 0 a 5.5 5.5 0 0 1 11 0" stroke-linecap="round"/>
</g>
<g transform="matrix(2.3633 0 0 2.3633 415.8218 409.6868)" id="459989">
<g style="" vector-effect="non-scaling-stroke">
		<g transform="matrix(1 0 0 1 79.985 155)" id="Layer_1">
<rect style="stroke: none; stroke-width: 1; stroke-dasharray: none; stroke-linecap: butt; stroke-dashoffset: 0; stroke-linejoin: miter; stroke-miterlimit: 4; is-custom-font: none; font-file-url: none; fill: rgb(244,245,245); fill-rule: nonzero; opacity: 0;" x="-363.969" y="-760" rx="0" ry="0" width="727.938" height="1520"/>
</g>
		<g transform="matrix(1 0 0 1 0 0)" id="Layer_2">
<circle style="stroke: none; stroke-width: 1; stroke-dasharray: none; stroke-linecap: butt; stroke-dashoffset: 0; stroke-linejoin: miter; stroke-miterlimit: 4; is-custom-font: none; font-file-url: none; fill: rgb(235,240,241); fill-rule: nonzero; opacity: 1;" cx="0" cy="0" r="64"/>
</g>
		<g transform="matrix(1 0 0 1 14.6575 8.1805)" id="Layer_2" clip-path="url(#CLIPPATH_4)">
<clipPath id="CLIPPATH_4">
	<circle transform="matrix(1 0 0 1 -14.6575 -8.1805)" id="SVGID_2_" cx="0" cy="0" r="64"/>
</clipPath>
<polygon style="stroke: none; stroke-width: 1; stroke-dasharray: none; stroke-linecap: butt; stroke-dashoffset: 0; stroke-linejoin: miter; stroke-miterlimit: 4; is-custom-font: none; font-file-url: none; fill: rgb(217,225,226); fill-rule: nonzero; opacity: 1;" points="-49.3425,31.7525 -25.1575,55.8175 49.3425,55.8175 49.3425,-5.6235 14.8415,-40.2255 12.7595,-41.0975 3.2085,-50.6915 -3.9905,-48.9305 -10.9395,-55.8175 -33.0475,-12.9475 "/>
</g>
		<g transform="matrix(1 0 0 1 -2.1545 -4.8209)" id="Layer_2">
<path style="stroke: none; stroke-width: 1; stroke-dasharray: none; stroke-linecap: butt; stroke-dashoffset: 0; stroke-linejoin: miter; stroke-miterlimit: 4; is-custom-font: none; font-file-url: none; fill: rgb(1,105,56); fill-rule: nonzero; opacity: 1;" transform=" translate(-61.8455, -59.1791)" d="M 58.799 19.683 L 30.021 82.768 c -0.913 2.002 -0.023 4.386 1.979 5.299 l 27.592 12.587 c 2.002 0.913 4.386 0.023 5.299 -1.979 L 93.67 35.591 c 0.913 -2.002 0.023 -4.386 -1.979 -5.299 L 64.099 17.704 C 62.097 16.791 59.713 17.682 58.799 19.683 z" stroke-linecap="round"/>
</g>
		<g transform="matrix(1 0 0 1 -2.3045 -6.283)" id="Layer_2">
<path style="stroke: none; stroke-width: 1; stroke-dasharray: none; stroke-linecap: butt; stroke-dashoffset: 0; stroke-linejoin: miter; stroke-miterlimit: 4; is-custom-font: none; font-file-url: none; fill: rgb(2,123,56); fill-rule: nonzero; opacity: 1;" transform=" translate(-61.6955, -57.717)" d="M 44.408 22.075 l -3.698 69.24 c -0.117 2.197 1.584 4.09 3.781 4.208 l 30.284 1.617 c 2.197 0.117 4.09 -1.584 4.208 -3.781 l 3.698 -69.24 c 0.117 -2.197 -1.584 -4.09 -3.781 -4.208 l -30.284 -1.617 C 46.419 18.177 44.526 19.879 44.408 22.075 z" stroke-linecap="round"/>
</g>
		<g transform="matrix(1 0 0 1 -1.2458 -7.033)" id="Layer_2">
<path style="stroke: none; stroke-width: 1; stroke-dasharray: none; stroke-linecap: butt; stroke-dashoffset: 0; stroke-linejoin: miter; stroke-miterlimit: 4; is-custom-font: none; font-file-url: none; fill: rgb(137,188,73); fill-rule: nonzero; opacity: 1;" transform=" translate(-62.7543, -56.967)" d="M 32.715 31.142 L 56.865 96.14 c 0.766 2.062 3.08 3.123 5.143 2.356 l 28.429 -10.562 c 2.062 -0.766 3.123 -3.08 2.356 -5.143 L 68.643 17.794 c -0.766 -2.062 -3.08 -3.123 -5.143 -2.356 L 35.072 26 C 33.01 26.766 31.949 29.08 32.715 31.142 z" stroke-linecap="round"/>
</g>
		<g transform="matrix(1 0 0 1 -1.2458 -7.033)" id="Layer_2">
<path style="stroke: none; stroke-width: 1; stroke-dasharray: none; stroke-linecap: butt; stroke-dashoffset: 0; stroke-linejoin: miter; stroke-miterlimit: 4; is-custom-font: none; font-file-url: none; fill: rgb(146,193,66); fill-rule: nonzero; opacity: 1;" transform=" translate(-62.7543, -56.967)" d="M 32.715 31.142 L 56.865 96.14 c 0.766 2.062 3.08 3.123 5.143 2.356 l 28.429 -10.562 c 2.062 -0.766 3.123 -3.08 2.356 -5.143 L 68.643 17.794 c -0.766 -2.062 -3.08 -3.123 -5.143 -2.356 L 35.072 26 C 33.01 26.766 31.949 29.08 32.715 31.142 z" stroke-linecap="round"/>
</g>
		<g transform="matrix(1 0 0 1 -0.7815 -6.3305)" id="Layer_2" clip-path="url(#CLIPPATH_5)">
<clipPath id="CLIPPATH_5">
	<path transform="matrix(1 0 0 1 -0.4643 -0.7025) translate(-62.7543, -56.967)" id="SVGID_4_" d="M 32.715 31.142 L 56.865 96.14 c 0.766 2.062 3.08 3.123 5.143 2.356 l 28.429 -10.562 c 2.062 -0.766 3.123 -3.08 2.356 -5.143 L 68.643 17.794 c -0.766 -2.062 -3.08 -3.123 -5.143 -2.356 L 35.072 26 C 33.01 26.766 31.949 29.08 32.715 31.142 z" stroke-linecap="round"/>
</clipPath>
<path style="stroke: none; stroke-width: 1; stroke-dasharray: none; stroke-linecap: butt; stroke-dashoffset: 0; stroke-linejoin: miter; stroke-miterlimit: 4; is-custom-font: none; font-file-url: none; fill: rgb(60,156,54); fill-rule: nonzero; opacity: 1;" transform=" translate(-63.2185, -57.6695)" d="M 41.262 22.823 c 0.114 0.248 0.228 0.496 0.325 0.755 l 0 0.001 l 15.399 -5.719 c 0 -0.001 -0.001 -0.002 -0.001 -0.003 c -0.097 -0.26 -0.171 -0.522 -0.247 -0.784 l 11.239 -4.176 l 4.077 10.974 c -0.286 0.139 -0.576 0.273 -0.878 0.389 l 19.312 51.978 c 0.305 -0.109 0.611 -0.198 0.919 -0.279 l 4.649 12.514 l -11.008 4.09 c -0.447 -0.68 -0.833 -1.414 -1.129 -2.209 l 0 -0.001 l -15.399 5.719 c 0 0.001 0.001 0.002 0.001 0.003 c 0.296 0.795 0.483 1.603 0.588 2.41 l -10.65 3.957 l -4.66 -12.542 c 0.213 -0.095 0.422 -0.194 0.643 -0.276 L 35.136 37.658 c -0.221 0.082 -0.445 0.143 -0.667 0.21 l -4.088 -11.002 L 41.262 22.823 z M 38.151 35.948 l 19.693 53.004 c 3.463 -0.131 6.804 1.399 8.966 4.107 l 16.437 -6.104 c -0.132 -3.507 1.436 -6.893 4.209 -9.052 l -19.662 -52.92 c -3.509 0.175 -6.907 -1.365 -9.097 -4.107 L 42.261 26.98 C 42.392 30.444 40.861 33.786 38.151 35.948 z" stroke-linecap="round"/>
</g>
		<g transform="matrix(-0.3483 -0.9374 0.9374 -0.3483 -1.2472 -7.0346)" id="Layer_2">
<ellipse style="stroke: none; stroke-width: 1; stroke-dasharray: none; stroke-linecap: butt; stroke-dashoffset: 0; stroke-linejoin: miter; stroke-miterlimit: 4; is-custom-font: none; font-file-url: none; fill: rgb(60,156,54); fill-rule: nonzero; opacity: 1;" cx="0" cy="0" rx="9.24" ry="11.806"/>
</g>
		<g transform="matrix(1 0 0 1 -9.3153 -27.9475)" id="Layer_2">
<path style="stroke: none; stroke-width: 1; stroke-dasharray: none; stroke-linecap: butt; stroke-dashoffset: 0; stroke-linejoin: miter; stroke-miterlimit: 4; is-custom-font: none; font-file-url: none; fill: rgb(60,156,54); fill-rule: nonzero; opacity: 1;" transform=" translate(-54.6848, -36.0525)" d="M 48.913 34.371 l 2.498 6.724 c 0.882 2.373 3.52 3.582 5.893 2.7 l 0.452 -0.168 c 2.373 -0.882 3.582 -3.52 2.7 -5.893 l -2.498 -6.724 c -0.882 -2.373 -3.52 -3.582 -5.893 -2.7 l -0.452 0.168 C 49.241 29.359 48.032 31.998 48.913 34.371 z" stroke-linecap="round"/>
</g>
		<g transform="matrix(1 0 0 1 6.2737 14.0115)" id="Layer_2">
<path style="stroke: none; stroke-width: 1; stroke-dasharray: none; stroke-linecap: butt; stroke-dashoffset: 0; stroke-linejoin: miter; stroke-miterlimit: 4; is-custom-font: none; font-file-url: none; fill: rgb(60,156,54); fill-rule: nonzero; opacity: 1;" transform=" translate(-70.2738, -78.0115)" d="M 64.502 76.33 l 2.498 6.724 c 0.882 2.373 3.52 3.582 5.893 2.7 l 0.452 -0.168 c 2.373 -0.882 3.582 -3.52 2.7 -5.893 l -2.498 -6.724 c -0.882 -2.373 -3.52 -3.582 -5.893 -2.7 l -0.452 0.168 C 64.83 71.318 63.621 73.957 64.502 76.33 z" stroke-linecap="round"/>
</g>
		<g transform="matrix(1 0 0 1 -0.0525 13.8815)" id="Layer_2">
<path style="stroke: none; stroke-width: 1; stroke-dasharray: none; stroke-linecap: butt; stroke-dashoffset: 0; stroke-linejoin: miter; stroke-miterlimit: 4; is-custom-font: none; font-file-url: none; fill: rgb(244,156,11); fill-rule: nonzero; opacity: 1;" transform=" translate(-63.9475, -77.8815)" d="M 95.737 105.25 H 32.158 c -2.209 0 -4 -1.791 -4 -4 V 54.513 c 0 -2.209 1.791 -4 4 -4 h 63.579 c 2.209 0 4 1.791 4 4 v 46.737 C 99.737 103.459 97.946 105.25 95.737 105.25 z" stroke-linecap="round"/>
</g>
		<g transform="matrix(1 0 0 1 23.01 13.8825)" id="Layer_2">
<path style="stroke: none; stroke-width: 1; stroke-dasharray: none; stroke-linecap: butt; stroke-dashoffset: 0; stroke-linejoin: miter; stroke-miterlimit: 4; is-custom-font: none; font-file-url: none; fill: rgb(228,131,22); fill-rule: nonzero; opacity: 0.67;" transform=" translate(-87.01, -77.8825)" d="M 95.526 50.513 h -3.158 c 2.325 0 4.211 1.885 4.211 4.211 v 30.476 l -22.297 -1.972 l 20.914 20.914 c -0.748 0.683 -1.735 1.11 -2.827 1.11 h 3.158 c 2.325 0 4.211 -1.885 4.211 -4.211 V 54.724 C 99.737 52.398 97.852 50.513 95.526 50.513 z" stroke-linecap="round"/>
</g>
		<g transform="matrix(1 0 0 1 -0.053 13.882)" id="Layer_2">
<path style="stroke: none; stroke-width: 1; stroke-dasharray: none; stroke-linecap: butt; stroke-dashoffset: 0; stroke-linejoin: miter; stroke-miterlimit: 4; is-custom-font: none; font-file-url: none; fill: rgb(251,202,118); fill-rule: nonzero; opacity: 1;" transform=" translate(-63.947, -77.882)" d="M 87.292 101.131 h -2.113 c -0.291 0 -0.526 -0.235 -0.526 -0.526 c 0 -0.291 0.235 -0.526 0.526 -0.526 h 2.113 c 0.291 0 0.526 0.235 0.526 0.526 C 87.819 100.896 87.583 101.131 87.292 101.131 z M 79.894 101.131 h -2.113 c -0.291 0 -0.526 -0.235 -0.526 -0.526 c 0 -0.291 0.235 -0.526 0.526 -0.526 h 2.113 c 0.291 0 0.526 0.235 0.526 0.526 C 80.42 100.896 80.185 101.131 79.894 101.131 z M 72.497 101.131 h -2.113 c -0.291 0 -0.526 -0.235 -0.526 -0.526 c 0 -0.291 0.235 -0.526 0.526 -0.526 h 2.113 c 0.291 0 0.526 0.235 0.526 0.526 C 73.023 100.896 72.788 101.131 72.497 101.131 z M 65.1 101.131 h -2.113 c -0.291 0 -0.526 -0.235 -0.526 -0.526 c 0 -0.291 0.235 -0.526 0.526 -0.526 H 65.1 c 0.291 0 0.526 0.235 0.526 0.526 C 65.626 100.896 65.391 101.131 65.1 101.131 z M 57.703 101.131 h -2.115 c -0.291 0 -0.526 -0.235 -0.526 -0.526 c 0 -0.291 0.235 -0.526 0.526 -0.526 h 2.115 c 0.291 0 0.526 0.235 0.526 0.526 C 58.229 100.896 57.993 101.131 57.703 101.131 z M 50.304 101.131 h -2.113 c -0.291 0 -0.526 -0.235 -0.526 -0.526 c 0 -0.291 0.235 -0.526 0.526 -0.526 h 2.113 c 0.291 0 0.526 0.235 0.526 0.526 C 50.831 100.896 50.595 101.131 50.304 101.131 z M 42.907 101.131 h -2.113 c -0.291 0 -0.526 -0.235 -0.526 -0.526 c 0 -0.291 0.235 -0.526 0.526 -0.526 h 2.113 c 0.291 0 0.526 0.235 0.526 0.526 C 43.433 100.896 43.198 101.131 42.907 101.131 z M 35.51 101.131 h -0.028 c -0.871 0 -1.579 -0.708 -1.579 -1.579 v -0.46 c 0 -0.291 0.235 -0.526 0.526 -0.526 s 0.526 0.235 0.526 0.526 v 0.46 c 0 0.29 0.236 0.526 0.526 0.526 c 0.291 0 0.54 0.235 0.54 0.526 C 36.022 100.896 35.801 101.131 35.51 101.131 z M 92.574 101.119 c -0.254 0 -0.478 -0.185 -0.519 -0.445 c -0.045 -0.287 0.151 -0.556 0.439 -0.601 c 0.254 -0.04 0.445 -0.263 0.445 -0.52 v -0.623 c 0 -0.291 0.235 -0.526 0.526 -0.526 c 0.291 0 0.526 0.235 0.526 0.526 v 0.623 c 0 0.782 -0.561 1.439 -1.335 1.56 C 92.63 101.117 92.602 101.119 92.574 101.119 z M 34.43 94.335 c -0.291 0 -0.526 -0.235 -0.526 -0.526 v -2.115 c 0 -0.291 0.235 -0.526 0.526 -0.526 s 0.526 0.235 0.526 0.526 v 2.115 C 34.956 94.1 34.72 94.335 34.43 94.335 z M 93.465 94.172 c -0.291 0 -0.526 -0.235 -0.526 -0.526 v -2.115 c 0 -0.291 0.235 -0.526 0.526 -0.526 c 0.291 0 0.526 0.235 0.526 0.526 v 2.115 C 93.992 93.936 93.756 94.172 93.465 94.172 z M 34.43 86.937 c -0.291 0 -0.526 -0.235 -0.526 -0.526 v -2.113 c 0 -0.291 0.235 -0.526 0.526 -0.526 s 0.526 0.235 0.526 0.526 v 2.113 C 34.956 86.702 34.72 86.937 34.43 86.937 z M 34.43 79.54 c -0.291 0 -0.526 -0.235 -0.526 -0.526 V 76.9 c 0 -0.291 0.235 -0.526 0.526 -0.526 s 0.526 0.235 0.526 0.526 v 2.113 C 34.956 79.304 34.72 79.54 34.43 79.54 z M 34.43 72.143 c -0.291 0 -0.526 -0.235 -0.526 -0.526 v -2.113 c 0 -0.291 0.235 -0.526 0.526 -0.526 s 0.526 0.235 0.526 0.526 v 2.113 C 34.956 71.907 34.72 72.143 34.43 72.143 z M 34.43 64.744 c -0.291 0 -0.526 -0.235 -0.526 -0.526 v -2.113 c 0 -0.291 0.235 -0.526 0.526 -0.526 s 0.526 0.235 0.526 0.526 v 2.113 C 34.956 64.509 34.72 64.744 34.43 64.744 z M 93.465 64.581 c -0.291 0 -0.526 -0.235 -0.526 -0.526 v -2.113 c 0 -0.291 0.235 -0.526 0.526 -0.526 c 0.291 0 0.526 0.235 0.526 0.526 v 2.113 C 93.992 64.345 93.756 64.581 93.465 64.581 z M 34.43 57.347 c -0.291 0 -0.526 -0.235 -0.526 -0.526 v -0.61 c 0 -0.781 0.583 -1.453 1.356 -1.564 c 0.282 -0.034 0.554 0.158 0.595 0.447 c 0.041 0.288 -0.159 0.554 -0.447 0.595 c -0.257 0.037 -0.451 0.261 -0.451 0.521 v 0.61 C 34.956 57.112 34.72 57.347 34.43 57.347 z M 93.465 57.184 c -0.291 0 -0.526 -0.235 -0.526 -0.526 v -0.446 c 0 -0.29 -0.236 -0.526 -0.526 -0.526 c -0.291 0 -0.534 -0.235 -0.534 -0.526 s 0.229 -0.526 0.52 -0.526 h 0.013 c 0.871 0 1.579 0.708 1.579 1.579 v 0.446 C 93.992 56.948 93.756 57.184 93.465 57.184 z M 87.115 55.685 h -2.113 c -0.291 0 -0.526 -0.235 -0.526 -0.526 s 0.235 -0.526 0.526 -0.526 h 2.113 c 0.291 0 0.526 0.235 0.526 0.526 S 87.405 55.685 87.115 55.685 z M 79.717 55.685 h -2.113 c -0.291 0 -0.526 -0.235 -0.526 -0.526 s 0.235 -0.526 0.526 -0.526 h 2.113 c 0.291 0 0.526 0.235 0.526 0.526 S 80.008 55.685 79.717 55.685 z M 72.32 55.685 h -2.113 c -0.291 0 -0.526 -0.235 -0.526 -0.526 s 0.235 -0.526 0.526 -0.526 h 2.113 c 0.291 0 0.526 0.235 0.526 0.526 S 72.611 55.685 72.32 55.685 z M 64.923 55.685 h -2.115 c -0.291 0 -0.526 -0.235 -0.526 -0.526 s 0.235 -0.526 0.526 -0.526 h 2.115 c 0.291 0 0.526 0.235 0.526 0.526 S 65.214 55.685 64.923 55.685 z M 57.525 55.685 h -2.113 c -0.291 0 -0.526 -0.235 -0.526 -0.526 s 0.235 -0.526 0.526 -0.526 h 2.113 c 0.291 0 0.526 0.235 0.526 0.526 S 57.816 55.685 57.525 55.685 z M 50.127 55.685 h -2.113 c -0.291 0 -0.526 -0.235 -0.526 -0.526 s 0.235 -0.526 0.526 -0.526 h 2.113 c 0.291 0 0.526 0.235 0.526 0.526 S 50.418 55.685 50.127 55.685 z M 42.73 55.685 h -2.115 c -0.291 0 -0.526 -0.235 -0.526 -0.526 s 0.235 -0.526 0.526 -0.526 h 2.115 c 0.291 0 0.526 0.235 0.526 0.526 S 43.021 55.685 42.73 55.685 z" stroke-linecap="round"/>
</g>
		<g transform="matrix(1 0 0 1 -32.1575 13.882)" id="Layer_2">
<path style="stroke: none; stroke-width: 1; stroke-dasharray: none; stroke-linecap: butt; stroke-dashoffset: 0; stroke-linejoin: miter; stroke-miterlimit: 4; is-custom-font: none; font-file-url: none; fill: rgb(249,193,135); fill-rule: nonzero; opacity: 0.5;" transform=" translate(-31.8425, -77.882)" d="M 31.316 101.039 V 54.724 c 0 -2.325 1.885 -4.211 4.211 -4.211 h -3.158 c -2.325 0 -4.211 1.885 -4.211 4.211 v 46.316 c 0 2.325 1.885 4.211 4.211 4.211 h 3.158 C 33.201 105.25 31.316 103.365 31.316 101.039 z" stroke-linecap="round"/>
</g>
		<g transform="matrix(1 0 0 1 23.105 13.882)" id="Layer_2">
<path style="stroke: none; stroke-width: 1; stroke-dasharray: none; stroke-linecap: butt; stroke-dashoffset: 0; stroke-linejoin: miter; stroke-miterlimit: 4; is-custom-font: none; font-file-url: none; fill: rgb(209,115,17); fill-rule: nonzero; opacity: 1;" transform=" translate(-87.105, -77.882)" d="M 99.842 86.303 H 80.368 c -4.418 0 -8 -3.582 -8 -8 v -0.842 c 0 -4.418 3.582 -8 8 -8 h 19.474 c 1.105 0 2 0.895 2 2 v 12.842 C 101.842 85.407 100.947 86.303 99.842 86.303 z" stroke-linecap="round"/>
</g>
		<g transform="matrix(1 0 0 1 36.263 14.467)" id="Layer_2" clip-path="url(#CLIPPATH_6)">
<clipPath id="CLIPPATH_6">
	<path transform="matrix(1 0 0 1 -2.0035 -0.585) translate(-98.2595, -77.882)" id="SVGID_6_" d="M 99.737 69.461 h -5.06 v 16.842 h 5.06 c 1.163 0 2.105 -0.943 2.105 -2.105 V 71.566 C 101.842 70.403 100.9 69.461 99.737 69.461 z" stroke-linecap="round"/>
</clipPath>
<rect style="stroke: none; stroke-width: 1; stroke-dasharray: none; stroke-linecap: butt; stroke-dashoffset: 0; stroke-linejoin: miter; stroke-miterlimit: 4; is-custom-font: none; font-file-url: none; fill: rgb(202,98,19); fill-rule: nonzero; opacity: 1;" x="-1.579" y="-12.837" rx="0" ry="0" width="3.158" height="25.674"/>
</g>
		<g transform="matrix(1 0 0 1 22.315 17.0185)" id="Layer_2" clip-path="url(#CLIPPATH_7)">
<clipPath id="CLIPPATH_7">
	<path transform="matrix(1 0 0 1 0.79 -3.1365) translate(-87.105, -77.882)" id="SVGID_8_" d="M 99.842 86.303 H 80.368 c -4.418 0 -8 -3.582 -8 -8 v -0.842 c 0 -4.418 3.582 -8 8 -8 h 19.474 c 1.105 0 2 0.895 2 2 v 12.842 C 101.842 85.407 100.947 86.303 99.842 86.303 z" stroke-linecap="round"/>
</clipPath>
<polygon style="stroke: none; stroke-width: 1; stroke-dasharray: none; stroke-linecap: butt; stroke-dashoffset: 0; stroke-linejoin: miter; stroke-miterlimit: 4; is-custom-font: none; font-file-url: none; fill: rgb(197,100,21); fill-rule: nonzero; opacity: 1;" points="-8.521,-0.3265 -2.342,5.7525 8.521,5.7525 -2.982,-5.7525 "/>
</g>
		<g transform="matrix(1 0 0 1 16.467 13.882)" id="Layer_2">
<circle style="stroke: none; stroke-width: 1; stroke-dasharray: none; stroke-linecap: butt; stroke-dashoffset: 0; stroke-linejoin: miter; stroke-miterlimit: 4; is-custom-font: none; font-file-url: none; fill: rgb(216,185,151); fill-rule: nonzero; opacity: 1;" cx="0" cy="0" r="3.888"/>
</g>
		<g transform="matrix(1 0 0 1 14.24 13.882)" id="Layer_2">
<path style="stroke: none; stroke-width: 1; stroke-dasharray: none; stroke-linecap: butt; stroke-dashoffset: 0; stroke-linejoin: miter; stroke-miterlimit: 4; is-custom-font: none; font-file-url: none; fill: rgb(241,210,174); fill-rule: nonzero; opacity: 1;" transform=" translate(-78.24, -77.882)" d="M 78.684 77.882 c 0 -1.511 0.471 -2.866 1.217 -3.831 c -1.877 0.276 -3.322 1.877 -3.322 3.831 c 0 1.953 1.446 3.555 3.322 3.831 C 79.155 80.748 78.684 79.393 78.684 77.882 z" stroke-linecap="round"/>
</g>
		<g transform="matrix(1 0 0 1 18.693 13.882)" id="Layer_2">
<path style="stroke: none; stroke-width: 1; stroke-dasharray: none; stroke-linecap: butt; stroke-dashoffset: 0; stroke-linejoin: miter; stroke-miterlimit: 4; is-custom-font: none; font-file-url: none; fill: rgb(200,165,126); fill-rule: nonzero; opacity: 1;" transform=" translate(-82.693, -77.882)" d="M 82.249 77.882 c 0 1.511 -0.471 2.866 -1.217 3.831 c 1.877 -0.276 3.322 -1.877 3.322 -3.831 c 0 -1.953 -1.446 -3.555 -3.322 -3.831 C 81.778 75.015 82.249 76.37 82.249 77.882 z" stroke-linecap="round"/>
</g>
</g>
</g>
</svg>