<svg xmlns="http://www.w3.org/2000/svg" xmlns:xlink="http://www.w3.org/1999/xlink" version="1.1" width="1000" height="1000" viewBox="0 0 1000 1000" xml:space="preserve">
<desc>Created with Fabric.js 3.5.0</desc>
<defs>
</defs>
<rect x="0" y="0" width="100%" height="100%" fill="#ffffff"/>
<g transform="matrix(56.816 0 0 56.816 500.0001 500.0002)" id="888549">
<path style="stroke: none; stroke-width: 1; stroke-dasharray: none; stroke-linecap: butt; stroke-dashoffset: 0; stroke-linejoin: miter; stroke-miterlimit: 4; is-custom-font: none; font-file-url: none; fill: rgb(0,0,0); fill-rule: nonzero; opacity: 1;" vector-effect="non-scaling-stroke" transform=" translate(-7.9994, -8.001)" d="M 11.742 10.344 a 6.5 6.5 0 1 0 -1.397 1.398 h -0.001 q 0.044 0.06 0.098 0.115 l 3.85 3.85 a 1 1 0 0 0 1.415 -1.414 l -3.85 -3.85 a 1 1 0 0 0 -0.115 -0.1 z M 12 6.5 a 5.5 5.5 0 1 1 -11 0 a 5.5 5.5 0 0 1 11 0" stroke-linecap="round"/>
</g>
<g transform="matrix(6.6765 0 0 6.6765 412.4957 410.9384)" id="339770">
<path style="stroke: none; stroke-width: 1; stroke-dasharray: none; stroke-linecap: butt; stroke-dashoffset: 0; stroke-linejoin: miter; stroke-miterlimit: 4; is-custom-font: none; font-file-url: none; fill: rgb(0,0,0); fill-rule: evenodd; opacity: 1;" vector-effect="non-scaling-stroke" transform=" translate(-24, -24.503)" d="M 47 40 L 47 40 c 0 2.762 -2.238 5 -5 5 l 0 0 H 6 l 0 0 c -2.762 0 -5 -2.238 -5 -5 V 11 c 0 -2.209 1.791 -4 4 -4 l 0 0 h 20.171 l 8.099 -2.934 c 0.513 -0.187 1.081 0.078 1.268 0.589 L 35.391 7 H 39 c 2.209 0 4 1.791 4 4 v 2 l 0 0 c 2.209 0 4 1.791 4 4 V 40 z M 5 9 L 5 9 c -1.104 0 -2 0.896 -2 2 s 0.896 2 2 2 h 3.445 l 0 0 h 0.189 c 0.013 -0.005 0.021 -0.016 0.034 -0.021 L 19.65 9 H 5 z M 34.078 9.181 l -1.062 -2.924 l -0.001 0 v 0 L 30.964 7 h 0.003 l -5.514 2 h -0.01 l -11.039 4 h 21.062 L 34.078 9.181 z M 41 11 c 0 -1.104 -0.896 -2 -2 -2 h -2.883 l 1.454 4 H 41 l 0 0 V 11 z M 43 15 H 5 l 0 0 c -0.732 0 -1.41 -0.211 -2 -0.555 V 40 c 0 1.657 1.344 3 3 3 h 36 c 1.657 0 3 -1.343 3 -3 v -7 h -4 c -2.209 0 -4 -1.791 -4 -4 s 1.791 -4 4 -4 h 4 v -8 C 45 15.896 44.104 15 43 15 z M 45 31 v -4 h -4 c -1.104 0 -2 0.896 -2 2 s 0.896 2 2 2 H 45 z M 41 28 h 2 v 2 h -2 V 28 z" stroke-linecap="round"/>
</g>
</svg>